<svg xmlns="http://www.w3.org/2000/svg" version="1.1" xmlns:xlink="http://www.w3.org/1999/xlink" xmlns:svgjs="http://svgjs.dev/svgjs" width="1000" height="999" viewBox="0 0 1000 999"><g transform="matrix(1,0,0,1,-0.215743440233382,-0.21552769679306039)"><svg viewBox="0 0 343 343" data-background-color="#ffffff" preserveAspectRatio="xMidYMid meet" height="999" width="1000" xmlns="http://www.w3.org/2000/svg" xmlns:xlink="http://www.w3.org/1999/xlink"><g id="tight-bounds" transform="matrix(1,0,0,1,0.0740000000000407,0.07400000000001228)"><svg viewBox="0 0 342.85155851775386 342.85155851775386" height="342.85155851775386" width="342.85155851775386"><g><svg></svg></g><g><svg viewBox="0 0 342.85155851775386 342.85155851775386" height="342.85155851775386" width="342.85155851775386"><g><path d="M0 171.426c0-94.676 76.75-171.426 171.426-171.426 94.676 0 171.426 76.75 171.426 171.426 0 94.676-76.75 171.426-171.426 171.426-94.676 0-171.426-76.75-171.426-171.426zM171.426 332.853c89.154 0 161.428-72.274 161.427-161.427 0-89.154-72.274-161.428-161.427-161.428-89.154 0-161.428 72.274-161.428 161.428 0 89.154 72.274 161.428 161.428 161.427z" data-fill-palette-color="tertiary" fill="#000000" stroke="transparent"></path><ellipse rx="164.56874808852186" ry="164.56874808852186" cx="171.42577925887693" cy="171.42577925887693" fill="#000000" stroke="transparent" stroke-width="0" fill-opacity="1" data-fill-palette-color="tertiary"></ellipse></g><g transform="matrix(1,0,0,1,64.84655864529837,115.99163641886076)"><svg viewBox="0 0 213.1584412271571 110.86828568003234" height="110.86828568003234" width="213.1584412271571"><g><svg viewBox="0 0 213.1584412271571 110.86828568003234" height="110.86828568003234" width="213.1584412271571"><g><svg viewBox="0 0 213.1584412271571 110.86828568003234" height="110.86828568003234" width="213.1584412271571"><g id="textblocktransform"><svg viewBox="0 0 213.1584412271571 110.86828568003234" height="110.86828568003234" width="213.1584412271571" id="textblock"><g><svg viewBox="0 0 213.1584412271571 110.86828568003234" height="110.86828568003234" width="213.1584412271571"><g transform="matrix(1,0,0,1,0,0)"><svg width="213.1584412271571" viewBox="1.25 -33.95 65.85 34.25000000000001" height="110.86828568003234" data-palette-color="#6ec9f5"><path d="M16.1 0.3L16.1 0.3Q14.3-4.55 12.48-9.28 10.65-14 8.95-18.3 7.25-22.6 5.75-26.05L5.75-26.05Q4.7-28.5 4.1-29.7 3.5-30.9 2.95-31.3 2.4-31.7 1.5-31.8L1.5-31.8Q1.35-32.4 1.3-32.98 1.25-33.55 1.25-33.95L1.25-33.95Q1.75-33.9 2.45-33.88 3.15-33.85 3.98-33.83 4.8-33.8 5.65-33.8 6.5-33.8 7.3-33.8L7.3-33.8Q8.9-33.8 10.43-33.85 11.95-33.9 13.35-33.95L13.35-33.95Q13.35-33.5 13.28-32.93 13.2-32.35 13.1-31.8L13.1-31.8Q11.45-31.7 10.65-31.28 9.85-30.85 9.98-29.73 10.1-28.6 11.1-26.3L11.1-26.3Q12.45-23.1 13.75-19.8 15.05-16.5 16.32-13.13 17.6-9.75 18.9-6.15L18.9-6.15 18.15-6.15Q19.6-9.4 20.93-12.6 22.25-15.8 23.53-19.07 24.8-22.35 26-25.7L26-25.7Q26.95-28.5 26.58-30.03 26.2-31.55 23.95-31.8L23.95-31.8Q23.8-32.35 23.75-32.95 23.7-33.55 23.7-33.95L23.7-33.95Q24.45-33.9 25.13-33.88 25.8-33.85 26.5-33.83 27.2-33.8 27.95-33.8L27.95-33.8Q29.1-33.8 30.53-33.85 31.95-33.9 33.05-33.95L33.05-33.95Q33.05-33.4 33-32.88 32.95-32.35 32.8-31.8L32.8-31.8Q31.25-31.45 30.35-29.93 29.45-28.4 28.5-25.9L28.5-25.9Q26-19.45 23.38-12.95 20.75-6.45 18.05 0.1L18.05 0.1Q17.55 0.2 17.13 0.25 16.7 0.3 16.1 0.3ZM58.9 0.3L58.9 0.3Q58-1.15 56.4-3.43 54.8-5.7 52.77-8.25 50.75-10.8 48.65-13.1 46.55-15.4 44.75-16.95L44.75-16.95 54.95-27.65Q56.8-29.55 56.82-30.63 56.85-31.7 55.15-31.8L55.15-31.8Q55-32.3 54.95-32.85 54.9-33.4 54.9-33.95L54.9-33.95Q55.75-33.9 57.15-33.85 58.55-33.8 60.05-33.8L60.05-33.8Q61.05-33.8 61.97-33.83 62.9-33.85 63.72-33.88 64.55-33.9 65.2-33.95L65.2-33.95Q65.2-33.45 65.15-32.85 65.1-32.25 64.9-31.8L64.9-31.8Q63.8-31.75 62.77-31.38 61.75-31 60.57-30.1 59.4-29.2 57.8-27.45L57.8-27.45 49.05-18.15 49.05-19.35Q51.15-17.5 53.82-14.28 56.5-11.05 59.55-7.1L59.55-7.1Q60.8-5.5 61.75-4.45 62.7-3.4 63.92-2.85 65.15-2.3 67.1-2.15L67.1-2.15Q67.1-1.75 67.05-1.15 67-0.55 66.85 0L66.85 0Q65.9 0 64.9 0 63.9 0 62.85 0.05 61.8 0.1 60.8 0.15 59.8 0.2 58.9 0.3ZM37.1 0.15L37.1 0.15Q37.1-0.55 37.15-1.07 37.2-1.6 37.35-2L37.35-2Q38.7-2.1 39.45-2.48 40.2-2.85 40.5-3.78 40.8-4.7 40.8-6.35L40.8-6.35 40.8-27.45Q40.8-29.15 40.5-30.05 40.2-30.95 39.45-31.35 38.7-31.75 37.35-31.8L37.35-31.8Q37.2-32.2 37.15-32.75 37.1-33.3 37.1-33.95L37.1-33.95Q38.05-33.9 39.02-33.88 40-33.85 41.05-33.83 42.1-33.8 43.15-33.8L43.15-33.8Q44.25-33.8 45.25-33.83 46.25-33.85 47.22-33.88 48.2-33.9 49.2-33.95L49.2-33.95Q49.2-33.3 49.15-32.75 49.1-32.2 48.95-31.8L48.95-31.8Q47.65-31.75 46.87-31.35 46.1-30.95 45.8-30.05 45.5-29.15 45.5-27.45L45.5-27.45 45.5-6.35Q45.5-4.7 45.8-3.78 46.1-2.85 46.87-2.48 47.65-2.1 48.95-2L48.95-2Q49.1-1.6 49.15-1.07 49.2-0.55 49.2 0.15L49.2 0.15Q47.7 0.05 46.15 0.03 44.6 0 43.15 0L43.15 0Q41.7 0 40.05 0.03 38.4 0.05 37.1 0.15Z" opacity="1" transform="matrix(1,0,0,1,0,0)" fill="#6ec9f5" class="undefined-text-0" data-fill-palette-color="quaternary" id="text-0"></path></svg></g></svg></g></svg></g></svg></g><g></g></svg></g></svg></g></svg></g><defs></defs></svg><rect width="342.85155851775386" height="342.85155851775386" fill="none" stroke="none" visibility="hidden"></rect></g></svg></g></svg>